<svg width="173" height="28" viewBox="0 0 173 28" fill="none" xmlns="http://www.w3.org/2000/svg">
<path fill-rule="evenodd" clip-rule="evenodd" d="M19.0824 21.7308C15.264 25.1568 10.0158 27.491 4.29888 27.491H0V23.0201H4.29888C8.80984 23.0201 13.0258 21.1687 16.1146 18.3973C19.228 15.6038 21.3832 11.628 21.3832 8.39971H25.8367C25.8367 13.2186 22.8761 18.3269 19.0824 21.7308Z" fill="#FF14B9"/>
<path d="M161.742 17.3415V27.4635H157.003V9.86617H161.599V12.048C162.668 10.2238 164.77 9.4012 166.658 9.4012C171.005 9.4012 173 12.5129 173 16.3758V27.4635H168.261V17.1984C168.261 15.2312 167.3 13.6932 165.019 13.6932C162.953 13.6932 161.742 15.3027 161.742 17.3415Z" fill="black"/>
<path d="M144.071 23.6722C146.387 23.6722 148.524 21.9912 148.524 18.6648C148.524 15.3385 146.387 13.6574 144.071 13.6574C141.755 13.6574 139.617 15.3385 139.617 18.6648C139.617 21.9554 141.755 23.6722 144.071 23.6722ZM144.071 9.32965C149.308 9.32965 153.263 13.2282 153.263 18.6648C153.263 24.0656 149.308 28 144.071 28C138.833 28 134.879 24.0656 134.879 18.6648C134.879 13.2282 138.833 9.32965 144.071 9.32965Z" fill="black"/>
<path d="M131.124 27.4635H126.385V9.86617H131.124V27.4635ZM125.815 4.10769C125.815 2.46241 127.133 1.13903 128.737 1.13903C130.376 1.13903 131.658 2.46241 131.658 4.10769C131.658 5.68144 130.376 7.00482 128.737 7.00482C127.133 7.00482 125.815 5.68144 125.815 4.10769Z" fill="black"/>
<path d="M118.833 4.60843V9.86617H122.36V14.0867H118.833V21.4547C118.833 22.9926 119.546 23.4934 120.899 23.4934C121.47 23.4934 122.111 23.4219 122.36 23.3503V27.2847C121.933 27.4635 121.078 27.7139 119.688 27.7139C116.268 27.7139 114.13 25.6752 114.13 22.2773V14.0867H110.959V9.86617H111.85C113.703 9.86617 114.558 8.6501 114.558 7.07635V4.60843H118.833Z" fill="black"/>
<path d="M110.083 9.86615L103.064 17.2699L110.225 27.4635H104.418L99.7864 20.7393L97.8269 22.8138V27.4635H93.0883V1.56822H97.8269V16.4115L103.884 9.86615H110.083Z" fill="black"/>
<path d="M77.564 16.6619H85.4022C85.331 14.9093 84.1908 13.1925 81.4831 13.1925C79.0248 13.1925 77.6709 15.0524 77.564 16.6619ZM85.8654 21.24L89.8201 22.4204C88.9294 25.4606 86.1504 28 81.8394 28C77.0296 28 72.7899 24.5306 72.7899 18.5933C72.7899 12.9779 76.9228 9.32965 81.4119 9.32965C86.8273 9.32965 90.0695 12.799 90.0695 18.4502C90.0695 19.1298 89.9982 19.8451 89.9982 19.9167H77.4572C77.564 22.2415 79.5236 23.9226 81.875 23.9226C84.084 23.9226 85.2953 22.8138 85.8654 21.24Z" fill="black"/>
<path d="M69.7477 27.4635H65.0092V1.56822H69.7477V27.4635Z" fill="black"/>
<path d="M60.611 5.5026C59.5422 5.5026 58.1527 5.96757 58.1527 7.93475V9.86617H62.1074V13.9436H58.1527V27.4635H53.3785V13.9436H50.457V9.86617H53.3785V7.86322C53.3785 3.89308 55.8725 1.31786 59.7559 1.31786C60.7535 1.31786 61.7155 1.4967 62.1074 1.67553V5.68143C61.858 5.6099 61.3948 5.5026 60.611 5.5026Z" fill="black"/>
<path d="M36.4204 17.3415V27.4635H31.6818V9.86617H36.2779V12.048C37.3467 10.2238 39.4487 9.4012 41.337 9.4012C45.6836 9.4012 47.6788 12.5129 47.6788 16.3758V27.4635H42.9403V17.1984C42.9403 15.2312 41.9783 13.6932 39.6981 13.6932C37.6317 13.6932 36.4204 15.3027 36.4204 17.3415Z" fill="black"/>
<path d="M26.275 27.4635H21.2871V7.97025H26.275V27.4635Z" fill="black"/>
<path d="M26.8503 2.98269C26.8503 4.62998 25.5199 5.96537 23.8789 5.96537C22.2378 5.96537 20.9075 4.62998 20.9075 2.98269C20.9075 1.33539 22.2378 0 23.8789 0C25.5199 0 26.8503 1.33539 26.8503 2.98269Z" fill="#FF14B9"/>
</svg>
